<?xml version="1.0" encoding="UTF-8" standalone="no"?>
<!-- Created with Inkscape (http://www.inkscape.org/) -->

<svg
   width="420"
   height="420"
   viewBox="0 0 111.125 111.12501"
   version="1.1"
   id="svg1"
   xml:space="preserve"
   inkscape:version="1.4 (86a8ad7, 2024-10-11)"
   sodipodi:docname="favicon.svg"
   inkscape:export-filename="logo-full_16-6.png"
   inkscape:export-xdpi="3.6571429"
   inkscape:export-ydpi="3.6571429"
   xmlns:inkscape="http://www.inkscape.org/namespaces/inkscape"
   xmlns:sodipodi="http://sodipodi.sourceforge.net/DTD/sodipodi-0.dtd"
   xmlns="http://www.w3.org/2000/svg"
   xmlns:svg="http://www.w3.org/2000/svg"><sodipodi:namedview
     id="namedview1"
     pagecolor="#ffffff"
     bordercolor="#000000"
     borderopacity="0.25"
     inkscape:showpageshadow="2"
     inkscape:pageopacity="0.0"
     inkscape:pagecheckerboard="0"
     inkscape:deskcolor="#d1d1d1"
     inkscape:document-units="px"
     inkscape:zoom="0.82238127"
     inkscape:cx="272.37974"
     inkscape:cy="261.43592"
     inkscape:window-width="1280"
     inkscape:window-height="972"
     inkscape:window-x="-8"
     inkscape:window-y="-8"
     inkscape:window-maximized="1"
     inkscape:current-layer="layer6" /><defs
     id="defs1" /><g
     inkscape:groupmode="layer"
     id="layer5"
     inkscape:label="раскраска фона"
     style="display:inline"
     sodipodi:insensitive="true"><path
       sodipodi:type="star"
       style="display:inline;opacity:0.507692;fill:none;fill-opacity:1;stroke:none;stroke-width:0.264654;stroke-linejoin:round;stroke-dasharray:none;stroke-opacity:1"
       id="path2"
       inkscape:flatsided="true"
       sodipodi:sides="7"
       sodipodi:cx="16.731623"
       sodipodi:cy="24.232004"
       sodipodi:r1="22.621983"
       sodipodi:r2="25.135536"
       sodipodi:arg1="0.55616623"
       sodipodi:arg2="1.0049652"
       inkscape:rounded="0"
       inkscape:randomized="0"
       d="M 35.944141,36.174921 19.373084,46.699242 0.81295265,40.305275 -5.760095,21.807807 4.6035795,5.1358091 24.099918,2.8436353 38.04778,16.65734 Z"
       inkscape:transform-center-x="-2.5452877"
       inkscape:transform-center-y="0.15379765"
       transform="matrix(2.3283525,0.80502917,-0.80502917,2.3283525,34.002823,-13.497975)" /><path
       style="display:inline;opacity:0.998077;fill:#ac8bbd;fill-opacity:1;stroke:none;stroke-width:0.651999;stroke-linejoin:round;stroke-dasharray:none;stroke-opacity:1"
       d="M 41.094642,110.57485 87.947219,12.50537 3.3042559,80.573391 Z"
       id="path5"
       sodipodi:nodetypes="cccc" /><path
       style="display:inline;opacity:0.994231;fill:#5eafdb;fill-opacity:1;stroke:none;stroke-width:0.651999;stroke-linejoin:round;stroke-dasharray:none;stroke-opacity:1"
       d="M 87.899849,12.853592 40.229213,2.1078565 2.7273032,32.686335 3.3042559,80.573391 Z"
       id="path3"
       sodipodi:nodetypes="ccccc" /><path
       style="display:inline;opacity:0.996154;fill:#cb2a88;fill-opacity:1;stroke:none;stroke-width:0.651999;stroke-linejoin:round;stroke-dasharray:none;stroke-opacity:1"
       d="M 109.46338,56.052912 87.778242,12.744352 88.086339,99.925973 Z"
       id="path4"
       sodipodi:nodetypes="cccc" /><path
       style="opacity:0.998077;fill:#cc5e9f;fill-opacity:1;stroke:none;stroke-width:0.651999;stroke-linejoin:round;stroke-dasharray:none;stroke-opacity:1"
       d="M 40.908158,110.60984 87.825612,12.637235 88.253189,99.749743 Z"
       id="path6"
       sodipodi:nodetypes="cccc" /><path
       style="opacity:0.996865;fill:#4fa2d5;fill-opacity:1;stroke-width:0.692999;stroke-linejoin:bevel"
       d="M 87.539252,13.06995 3.1600189,32.830572 39.940737,1.9636188 Z"
       id="path7"
       sodipodi:nodetypes="cccc" /></g><g
     inkscape:groupmode="layer"
     id="layer6"
     inkscape:label="Буквы"
     style="display:inline"><text
       xml:space="preserve"
       style="font-style:normal;font-variant:normal;font-weight:600;font-stretch:normal;font-size:21.1667px;line-height:1;font-family:'El Messiri';-inkscape-font-specification:'El Messiri Semi-Bold';text-align:center;letter-spacing:0.264583px;writing-mode:lr-tb;direction:ltr;text-anchor:middle;display:none;opacity:0.998077;fill:#fefdfe;fill-opacity:1;stroke:none;stroke-width:0.651999;stroke-linejoin:round;stroke-dasharray:none;stroke-opacity:1"
       x="53.197803"
       y="80.32972"
       id="text7"
       transform="rotate(0.55517414)"
       inkscape:label="Бюро"><tspan
         sodipodi:role="line"
         id="tspan7"
         style="font-style:normal;font-variant:normal;font-weight:600;font-stretch:normal;font-size:21.1667px;font-family:'El Messiri';-inkscape-font-specification:'El Messiri Semi-Bold';stroke-width:0.652"
         x="0"
         y="0">Бюро</tspan></text><text
       xml:space="preserve"
       style="font-style:normal;font-variant:normal;font-weight:600;font-stretch:normal;font-size:47.3134px;line-height:1;font-family:'Afacad Flux';-inkscape-font-specification:'Afacad Flux Semi-Bold';text-align:center;letter-spacing:0.38006px;writing-mode:lr-tb;direction:ltr;text-anchor:middle;display:none;opacity:1;fill:#fefdfe;fill-opacity:1;stroke:none;stroke-width:0.936562;stroke-linejoin:round;stroke-dasharray:none;stroke-opacity:1"
       x="52.746803"
       y="60.95071"
       id="text8"
       transform="rotate(0.89831679)"
       inkscape:label="Мат"><tspan
         sodipodi:role="line"
         id="tspan8"
         style="font-style:normal;font-variant:normal;font-weight:600;font-stretch:normal;font-size:47.3134px;font-family:'Afacad Flux';-inkscape-font-specification:'Afacad Flux Semi-Bold';stroke-width:0.936564"
         x="0"
         y="0">MAT</tspan></text><text
       xml:space="preserve"
       style="font-style:normal;font-variant:normal;font-weight:normal;font-stretch:normal;font-size:67.5971px;line-height:1;font-family:Gautami;-inkscape-font-specification:Gautami;text-align:center;letter-spacing:0.506978px;writing-mode:lr-tb;direction:ltr;text-anchor:middle;display:none;opacity:0.998077;fill:#663366;fill-opacity:1;stroke:#ffffff;stroke-width:2.18851;stroke-linejoin:round;stroke-dasharray:none;stroke-opacity:1"
       x="48.089264"
       y="81.423843"
       id="text9"
       transform="matrix(1.1787192,0.07844538,-0.12969044,0.83974741,0,0)"
       inkscape:label="М"><tspan
         sodipodi:role="line"
         id="tspan9"
         style="font-style:normal;font-variant:normal;font-weight:normal;font-stretch:normal;font-size:67.5971px;font-family:Gautami;-inkscape-font-specification:Gautami;fill:#ffffff;fill-opacity:1;stroke:#ffffff;stroke-width:2.18851;stroke-dasharray:none;stroke-opacity:1"
         x="48.342754"
         y="81.423843">M</tspan></text><text
       xml:space="preserve"
       style="font-style:normal;font-variant:normal;font-weight:normal;font-stretch:normal;font-size:18.9221px;line-height:1;font-family:'Britannic Bold';-inkscape-font-specification:'Britannic Bold, ';text-align:center;letter-spacing:0.177394px;writing-mode:lr-tb;direction:ltr;text-anchor:middle;display:none;opacity:0.998077;fill:#ffffff;fill-opacity:1;stroke:#ffffff;stroke-width:0.571239;stroke-linejoin:bevel;stroke-dasharray:none;stroke-opacity:1"
       x="90.944801"
       y="73.650406"
       id="text10"
       transform="matrix(0.99323912,0.13587783,-0.13658147,0.98812218,0,0)"
       inkscape:label="Б"><tspan
         sodipodi:role="line"
         id="tspan10"
         style="font-style:normal;font-variant:normal;font-weight:normal;font-stretch:normal;font-size:18.9221px;font-family:'Britannic Bold';-inkscape-font-specification:'Britannic Bold, ';stroke:#ffffff;stroke-width:0.571239;stroke-linejoin:bevel;stroke-dasharray:none;stroke-opacity:1"
         x="91.033501"
         y="73.650406">Б</tspan></text><path
       d="m 87.714432,81.305444 c -0.10023,0.725188 -0.3363,1.363378 -0.708207,1.914567 -0.365147,0.552113 -0.812844,0.980046 -1.343111,1.283797 -0.628217,0.365608 -1.279284,0.598097 -1.953211,0.697468 -0.673934,0.09937 -1.523861,0.07888 -2.549775,-0.06147 l -5.467044,-0.74791 2.072965,-14.99729 c 3.456419,0.460287 7.703775,0.920577 10.09378,1.380865 l -0.205487,1.45439 C 85.690424,71.970298 83.357386,71.71071 81.111458,71.451138 l -0.607747,4.364576 1.976881,0.217163 c 1.029274,0.113073 1.854488,0.31528 2.485735,0.524783 0.632167,0.20279 1.204474,0.565013 1.716921,1.086668 0.458197,0.466343 0.768404,1.008222 0.930634,1.625642 0.169,0.618344 0.20244,1.296825 0.10035,2.035442 z m -2.842895,-0.980856 c 0.0155,-0.480713 0.0805,-0.994234 -0.10184,-1.439308 -0.188687,-0.460637 -0.540827,-0.883214 -0.969944,-1.135485 -0.607457,-0.357104 -1.374341,-0.320418 -2.072198,-0.41799 -0.424287,-0.05938 -1.281264,-0.101162 -1.281264,-0.101162 l -0.877824,6.469529 c 0,0 0.842197,0.120325 1.265604,0.159321 0.702074,0.06465 1.426131,0.288714 2.111558,0.123477 0.438937,-0.105815 0.848024,-0.367626 1.167654,-0.686542 0.171397,-0.171028 0.281367,-0.399871 0.369547,-0.625381 0.10965,-0.280339 0.13788,-0.586365 0.189797,-0.882864 0.0849,-0.484973 0.18308,-0.971497 0.19896,-1.46359 z"
       id="text11"
       style="font-size:18.9221px;line-height:1;font-family:'Britannic Bold';-inkscape-font-specification:'Britannic Bold, ';text-align:center;letter-spacing:0.177394px;text-anchor:middle;display:none;opacity:0.998077;fill:#ffffff;stroke:#ffffff;stroke-width:0.630211;stroke-linejoin:bevel"
       inkscape:label="Б ручная"
       aria-label="Б"
       sodipodi:nodetypes="accssccccccscccsaaaaccsaaaaaca" /><path
       style="font-size:67.5971px;line-height:1;font-family:Gautami;-inkscape-font-specification:Gautami;text-align:center;letter-spacing:0.506978px;text-anchor:middle;display:none;opacity:0.998077;fill:#ffffff;stroke:#ffffff;stroke-width:2.18851;stroke-linejoin:round"
       d="m 72.463682,71.986713 -6.66692,0.08922 2.365029,-32.165652 -17.453326,32.367567 -6.277043,0.084 -12.64529,-31.964782 -2.365029,32.165653 -6.627933,0.0887 2.782508,-37.84359 10.526718,-0.14087 11.910777,31.359874 16.7063,-31.742833 10.526718,-0.14087 z"
       id="text1"
       inkscape:label="М"
       aria-label="M" /><path
       d="M 81.44292,76.128381 72.245141,75.884475 74.002218,38.350176 53.660044,74.529637 48.24246,74.067272 36.751071,35.170967 l -9.113639,36.550696 -8.599228,0.0089 9.907041,-42.61965 16.168762,1.379929 8.725027,28.633998 15.08715,-26.601742 14.316818,1.387096 z"
       id="text2"
       style="font-size:87.0501px;line-height:1;font-family:'Franklin Gothic Medium';-inkscape-font-specification:'Franklin Gothic Medium, ';text-align:center;letter-spacing:0.652874px;text-anchor:middle;display:none;fill:#fefdfe;stroke:#fdfeff;stroke-width:0.879031;stroke-linecap:square;stroke-linejoin:bevel;stroke-miterlimit:3.9;stroke-dasharray:none"
       aria-label="M"
       sodipodi:nodetypes="cccccccccccccc" /><path
       d="m 77.656633,75.41237 -6.172496,-0.702552 -0.575773,-32.370575 -0.564826,0.312084 -15.6743,30.693039 -7.054671,-1.085244 -9.58044,-33.618766 1.939817,0.03261 -9.716812,31.344408 -6.172496,-0.702552 10.407219,-36.978498 9.728389,1.107283 6.22709,27.973455 c 0.933526,3.114753 1.454691,5.060906 1.563492,5.838457 l -0.103873,0.364553 c 0.782474,-1.389105 2.697765,-5.083275 3.425678,-6.304688 0.727908,-1.221413 11.297786,-25.321055 11.297786,-25.321055 l 9.810377,1.116616 z"
       id="text3"
       style="font-size:72.398px;line-height:1;font-family:DokChampa;-inkscape-font-specification:DokChampa;text-align:center;letter-spacing:0.36199px;text-anchor:middle;fill:#fefdfe;stroke:#feffff;stroke-width:3.62339;stroke-linecap:square;stroke-linejoin:miter;stroke-miterlimit:3.9;stroke-dasharray:none;stroke-opacity:1"
       aria-label="M"
       sodipodi:nodetypes="ccccccccccccccczccc" /></g></svg>
